<?xml version="1.0" encoding="UTF-8" standalone="no"?>
<svg width="150px" height="151px" viewBox="0 0 150 151" version="1.1" xmlns="http://www.w3.org/2000/svg" xmlns:xlink="http://www.w3.org/1999/xlink" xmlns:sketch="http://www.bohemiancoding.com/sketch/ns">
    <!-- Generator: Sketch 3.3.1 (12002) - http://www.bohemiancoding.com/sketch -->
    <title>clock</title>
    <desc>Created with Sketch.</desc>
    <defs></defs>
    <g id="Page-1" stroke="none" stroke-width="1" fill="none" fill-rule="evenodd" sketch:type="MSPage">
        <g id="Clock" sketch:type="MSLayerGroup" transform="translate(37.000000, 40.000000)">
            <path d="M33.4845102,28.256899 C33.6908664,27.2184924 33.2048984,26.133548 32.1979956,25.5783712 L4.34115406,10.2189233 C3.07534953,9.52099565 1.43197985,9.9373384 0.692312776,11.1608308 C-0.0525111225,12.3928532 0.38705031,13.9462899 1.66258263,14.6495812 L29.5194241,30.0090291 C30.51735,30.5592563 31.7499446,30.4169291 32.5893883,29.7325363 L37.3612587,32.3636061 L38.2541158,30.8867201 L33.4845102,28.256899 L33.4845102,28.256899 Z" id="Rectangle-212" fill="#262628" sketch:type="MSShapeGroup"></path>
            <path d="M44.6047022,28.8810199 C45.443556,29.5706859 46.671411,29.7106784 47.6795013,29.1548469 L90.9956348,5.27159727 C92.2620199,4.57334957 92.7082954,3.00483755 91.9686283,1.78134515 C91.2238044,0.549322787 89.5940999,0.136818733 88.3170634,0.840939351 L45.0009298,24.7241889 C44.0025463,25.2746684 43.5138868,26.3660448 43.7142091,27.4028304 L38.942086,30.0340396 L39.8349431,31.5109256 L44.6047022,28.8810199 L44.6047022,28.8810199 Z" id="Rectangle-212" fill="#262628" sketch:type="MSShapeGroup"></path>
            <path d="M39.7045455,32.081457 L39.7045455,24.8065708 C39.7045455,23.8654559 38.9413945,23.098358 38,23.098358 C37.0520423,23.098358 36.2954545,23.8631509 36.2954545,24.8065708 L36.2954545,32.081457 C35.2764749,32.6711869 34.5909091,33.7734365 34.5909091,35.0358852 C34.5909091,36.2983335 35.2764745,37.4005827 36.2954536,37.9903128 L36.2954545,96.4260303 C36.2954545,97.3671452 37.0586055,98.1342431 38,98.1342431 C38.9479577,98.1342431 39.7045455,97.3694502 39.7045455,96.4260303 L39.7045455,37.9903161 C40.7235255,37.4005827 41.4090909,36.2983335 41.4090909,35.0358852 C41.4090909,33.7734365 40.7235251,32.6711869 39.7045455,32.081457 Z" id="Rectangle-211" fill="#FF940B" sketch:type="MSShapeGroup"></path>
        </g>
    </g>
</svg>