<?xml version="1.0" encoding="UTF-8" standalone="no"?>
<svg width="151px" height="152px" viewBox="0 0 151 152" version="1.1" xmlns="http://www.w3.org/2000/svg" xmlns:xlink="http://www.w3.org/1999/xlink" xmlns:sketch="http://www.bohemiancoding.com/sketch/ns">
    <!-- Generator: Sketch 3.3.1 (12002) - http://www.bohemiancoding.com/sketch -->
    <title>music</title>
    <desc>Created with Sketch.</desc>
    <defs></defs>
    <g id="Page-1" stroke="none" stroke-width="1" fill="none" fill-rule="evenodd" sketch:type="MSPage">
        <path d="M55.4525538,45.7311985 L55.4025383,63.4409049 L55.4639634,102.328589 C53.1579467,100.921433 50.3312127,100.085069 47.2944304,100.085069 C39.4717515,100.085069 33.1666667,105.596431 33.1666667,112.36211 C33.1666667,119.12779 39.4717515,124.576832 47.2944304,124.576832 C55.1171093,124.576832 61.7624359,119.121867 61.4836192,112.36211 L61.3405234,108.892731 L61.0222201,65.9316231 C61.005653,63.6955777 62.728686,61.4073846 64.9101952,60.8099913 L98.7204407,51.5512568 C100.884277,50.9587031 102.638413,52.2959307 102.638413,54.5178918 L102.638413,93.4168283 C100.206514,91.7164393 97.1025628,90.674748 93.7317796,90.674748 C85.9091007,90.674748 79.6040158,96.18611 79.6040158,102.951789 C79.6040158,109.717469 85.9091007,115.166511 93.7317796,115.166511 C101.554458,115.166511 108.129949,109.717469 108.129949,102.951789 C108.129949,102.888572 108.166667,48.9827629 108.166667,48.9827629 L108.166667,31.2730566 C108.166667,29.0418394 106.413153,27.7141287 104.248455,28.307979 L59.382175,40.6163238 C57.2182065,41.2099739 55.458832,43.5081787 55.4525538,45.7311985 Z" id="path3036-copy" fill="#FFFFFF" sketch:type="MSShapeGroup"></path>
    </g>
</svg>