<?xml version="1.0" encoding="UTF-8" standalone="no"?>
<svg width="151px" height="152px" viewBox="0 0 151 152" version="1.1" xmlns="http://www.w3.org/2000/svg" xmlns:xlink="http://www.w3.org/1999/xlink" xmlns:sketch="http://www.bohemiancoding.com/sketch/ns">
    <!-- Generator: Sketch 3.3.1 (12002) - http://www.bohemiancoding.com/sketch -->
    <title>phone</title>
    <desc>Created with Sketch.</desc>
    <defs></defs>
    <g id="Page-1" stroke="none" stroke-width="1" fill="none" fill-rule="evenodd" sketch:type="MSPage">
        <g id="Phone" sketch:type="MSLayerGroup" transform="translate(32.733333, 32.000000)" fill="#FFFFFF">
            <path d="M8.14099897,37.1775831 C1.70547021,24.1315712 0.386363636,20.3182563 0.386363636,15.4260019 C0.386363636,10.5337474 1.6038961,8.90299593 2.82142857,7.99702288 C4.03896104,7.09104984 13.0834879,0.749238518 13.0834879,0.749238518 C13.0834879,0.749238518 15.3446197,-0.881512964 17.257885,2.92357383 C18.8232839,6.00388218 26.4763451,17.9627264 26.4763451,17.9627264 C26.4763451,17.9627264 28.3896104,19.5934779 28.7374768,21.9490078 C28.91141,23.7609539 27.1720779,25.9352892 25.7806122,27.3848461 C23.1716141,30.1027652 22.4758813,30.4651544 22.4758813,34.0890466 C22.4758813,37.7129388 30.9986085,47.6786423 33.4336735,50.2153668 C35.8687384,52.7520913 35.6948052,52.7520913 38.1298701,55.1076212 C41.0867347,58.006735 49.0876623,65.435714 52.3923933,64.3485463 C55.5231911,63.2613786 56.7407236,63.2613786 59.5236549,60.1810703 C61.7847866,57.4631512 66.4809833,59.0939026 68.3942486,60.7246541 C70.3075139,62.3554056 80.0477737,67.7912439 83.0046382,69.7843846 C85.7875696,71.7775253 85.6136364,74.8578336 85.6136364,74.8578336 C85.6136364,74.8578336 79.8738404,83.9175641 79.1781076,85.0047317 C78.3084416,86.273094 76.221243,87.3602617 71.5250464,87.3602617 C66.8288497,87.3602617 62.1326531,87.3602617 50.1312616,79.5688935 C40.7388683,73.5894714 33.7815399,67.24766 28.91141,62.3554056 C23.8673469,57.4631512 13.3589953,47.6868704 8.14099897,37.1775831 Z" id="Shape" sketch:type="MSShapeGroup"></path>
        </g>
    </g>
</svg>