<?xml version="1.0" encoding="UTF-8" standalone="no"?>
<svg width="151px" height="152px" viewBox="0 0 151 152" version="1.1" xmlns="http://www.w3.org/2000/svg" xmlns:xlink="http://www.w3.org/1999/xlink" xmlns:sketch="http://www.bohemiancoding.com/sketch/ns">
    <!-- Generator: Sketch 3.3.1 (12002) - http://www.bohemiancoding.com/sketch -->
    <title>settings</title>
    <desc>Created with Sketch.</desc>
    <defs></defs>
    <g id="Page-1" stroke="none" stroke-width="1" fill="none" fill-rule="evenodd" sketch:type="MSPage">
        <g id="Settings" sketch:type="MSLayerGroup" transform="translate(18.200000, 18.000000)" fill="#FFFFFF">
            <path d="M87.4377375,9.70828614 C87.5927265,9.28967741 87.4163236,8.77387544 87.0248422,8.54517574 L84.2119999,6.90194014 C83.8289752,6.67818073 83.290638,6.77682235 83.0100632,7.12168111 L78.7245582,12.3890601 C78.4437717,12.7341791 77.8777228,12.871633 77.4808748,12.7047443 L74.2456675,11.3442245 C73.8395867,11.1734531 73.5449594,10.6742644 73.5875273,10.2300042 L74.2377108,3.44436595 C74.2803109,2.99977051 73.9779562,2.54801614 73.5413155,2.42963247 L70.4039975,1.57903113 C69.9767889,1.46320474 69.4822247,1.6990272 69.2996652,2.10507099 L66.5112472,8.30699112 C66.3285499,8.7133413 65.8167814,8.99444976 65.3903401,8.93780782 L61.9138811,8.47604805 C61.4775185,8.4180883 61.0649089,8.0137104 60.9924138,7.57358651 L59.8851224,0.851126401 C59.8125726,0.410670402 59.4049864,0.0536102653 58.9529426,0.0536102653 L55.7049521,0.0536102653 C55.2626732,0.0536102653 54.8452183,0.411300687 54.7726627,0.851791765 L53.6644476,7.57986039 C53.5918372,8.02068386 53.1697717,8.42668622 52.7438697,8.48372789 L49.2718065,8.9487463 C48.8359957,9.00711507 48.3342325,8.72421215 48.151395,8.31755036 L45.358733,2.10619083 C45.1757577,1.69922217 44.690538,1.46064746 44.2538972,1.57903113 L41.1165793,2.42963247 C40.6893707,2.54545886 40.3776487,3.00044764 40.420257,3.44512888 L41.0710567,10.2371981 C41.1136971,10.6822149 40.8096834,11.1845982 40.4126546,11.3506726 L37.1759729,12.7045542 C36.769707,12.8744924 36.2125886,12.7322931 35.9320869,12.3875242 L31.647699,7.12151823 C31.3669856,6.77648919 30.8373762,6.67324045 30.4458948,6.90194014 L27.6330525,8.54517574 C27.2500278,8.76893515 27.0651475,9.28962145 27.2198502,9.7074569 L29.5827818,16.0894831 C29.7376012,16.5076339 29.5720347,17.0724299 29.2307151,17.33723 L26.4481898,19.4959489 C26.0989293,19.7669097 25.5244865,19.7760222 25.1657405,19.5167392 L19.6862482,15.5564457 C19.3272316,15.2969671 18.7895713,15.3361596 18.4699281,15.6595899 L16.173252,17.9834759 C15.8605136,18.2999195 15.8151878,18.8513794 16.0715819,19.2145839 L19.9877506,24.7621757 C20.2443382,25.1256543 20.2295847,25.7147829 19.9683715,26.0600876 L17.8388946,28.8751005 C17.5716043,29.2284389 17.0192346,29.387626 16.6058393,29.230919 L10.291631,26.8373738 C9.87792368,26.6805486 9.36816114,26.8590414 9.14213925,27.2551609 L7.518144,30.1013285 C7.29700456,30.4888911 7.39449119,31.0336062 7.73531207,31.3175052 L12.9410162,35.6537828 C13.2820943,35.937896 13.4179388,36.5106511 13.2530041,36.9122008 L11.9084145,40.1857374 C11.7396426,40.5966293 11.2462988,40.8947472 10.8072404,40.8516749 L4.10105393,40.1937884 C3.66166418,40.1506836 3.21519932,40.4566204 3.09820178,40.8984343 L2.25755998,44.0729217 C2.14308978,44.5051917 2.37615104,45.0056153 2.77744054,45.1903377 L8.90674349,48.0117916 C9.30833579,48.1966534 9.5861528,48.7144851 9.53017407,49.1459787 L9.07382096,52.6636252 C9.01653986,53.1051576 8.61689674,53.5226557 8.18192619,53.5960096 L1.53817816,54.7164197 C1.10287938,54.789829 0.75,55.2022441 0.75,55.6596435 L0.75,58.9461147 C0.75,59.3936335 1.10350229,59.8160343 1.53883573,59.8894495 L8.18812661,61.0107942 C8.62378855,61.0842648 9.0250371,61.5113308 9.08141088,61.9422787 L9.54098447,65.4554773 C9.59866981,65.8964513 9.31907936,66.4041593 8.91717909,66.5891629 L2.77854727,69.4149111 C2.37634373,69.6000543 2.14056244,70.0910226 2.25755998,70.5328365 L3.09820178,73.7073239 C3.21267198,74.1395939 3.66233339,74.455009 4.10180793,74.4118959 L10.81435,73.7533858 C11.2541562,73.7102402 11.7506572,74.0178557 11.9147871,74.4195884 L13.2528163,77.6946168 C13.4207647,78.105696 13.2802304,78.6694148 12.9394983,78.9532398 L7.73515109,83.2883872 C7.39416194,83.5724263 7.29212211,84.1083103 7.518144,84.5044298 L9.14213925,87.3505973 C9.3632787,87.73816 9.87786837,87.9252306 10.2908115,87.7686951 L16.5981117,85.3777685 C17.0113664,85.2211149 17.5695493,85.388643 17.8312489,85.7340064 L19.9646918,88.5494978 C20.23248,88.9028961 20.2414857,89.4841447 19.9852386,89.8471409 L16.0713155,95.3915517 C15.8148751,95.7548219 15.8536087,96.2988521 16.173252,96.6222823 L18.4699281,98.9461684 C18.7826665,99.262612 19.3276694,99.3084747 19.6866212,99.0490429 L25.1692573,95.0864773 C25.5284799,94.8268498 26.1107105,94.8417781 26.4519721,95.106086 L29.2340246,97.2607919 C29.5832257,97.531249 29.7405489,98.0901629 29.5856768,98.508456 L27.2201573,104.897472 C27.0651683,105.316081 27.2415711,105.831883 27.6330525,106.060582 L30.4458948,107.703818 C30.8289196,107.927577 31.3672567,107.828936 31.6478315,107.484077 L35.9333365,102.216698 C36.214123,101.871579 36.7801719,101.734125 37.1770199,101.901014 L40.4122272,103.261534 C40.8183081,103.432305 41.1129353,103.931494 41.0703674,104.375754 L40.4201839,111.161392 C40.3775838,111.605988 40.6799385,112.057742 41.1165793,112.176126 L44.2538972,113.026727 C44.6811058,113.142553 45.17567,112.906731 45.3582296,112.500687 L48.1466475,106.298767 C48.3293449,105.892417 48.8411134,105.611308 49.2675546,105.66795 L52.7440136,106.12971 C53.1803762,106.18767 53.5929859,106.592048 53.665481,107.032172 L54.7727723,113.754632 C54.8453221,114.195088 55.2529083,114.552148 55.7049521,114.552148 L58.9529426,114.552148 C59.3952215,114.552148 59.8126764,114.194458 59.885232,113.753966 L60.9934472,107.025898 C61.0660575,106.585074 61.488123,106.179072 61.914025,106.12203 L65.3860882,105.657012 C65.821899,105.598643 66.3236623,105.881546 66.5064997,106.288208 L69.2991617,112.499567 C69.4821371,112.906536 69.9673568,113.145111 70.4039975,113.026727 L73.5413155,112.176126 C73.9685241,112.060299 74.280246,111.605311 74.2376377,111.160629 L73.586838,104.36856 C73.5441976,103.923543 73.8482113,103.42116 74.2452402,103.255086 L77.4819219,101.901204 C77.8881878,101.731266 78.4453061,101.873465 78.7258078,102.218234 L83.0101957,107.48424 C83.2909091,107.829269 83.8205185,107.932518 84.2119999,107.703818 L87.0248422,106.060582 C87.407867,105.836823 87.5927472,105.316137 87.4380445,104.898301 L85.0751129,98.5162751 C84.9202935,98.0981243 85.0858601,97.5333284 85.4271797,97.2685282 L88.2097049,95.1098093 C88.5589654,94.8388485 89.1334083,94.829736 89.4921542,95.089019 L94.9716465,99.0493125 C95.3306632,99.3087911 95.8683235,99.2695986 96.1879667,98.9461684 L98.4846428,96.6222823 C98.7973812,96.3058387 98.8427069,95.7543788 98.5863128,95.3911743 L94.6701442,89.8435825 C94.4135565,89.4801039 94.4283101,88.8909754 94.6895232,88.5456707 L96.8190001,85.7306577 C97.0862905,85.3773194 97.6386601,85.2181323 98.0520555,85.3748392 L104.366264,87.7683844 C104.779971,87.9252096 105.289734,87.7467168 105.515755,87.3505973 L107.139751,84.5044298 C107.36089,84.1168671 107.263404,83.572152 106.922583,83.2882531 L101.716879,78.9519754 C101.3758,78.6678622 101.239956,78.0951071 101.404891,77.6935574 L102.74948,74.4200208 C102.918252,74.0091289 103.411596,73.711011 103.850654,73.7540833 L110.556841,74.4119699 C110.996231,74.4550746 111.442695,74.1491378 111.559693,73.7073239 L112.400335,70.5328365 C112.514805,70.1005665 112.281744,69.600143 111.880454,69.4154205 L105.751151,66.5939666 C105.349559,66.4091048 105.071742,65.8912731 105.127721,65.4597795 L105.584074,61.942133 C105.641355,61.5006007 106.040998,61.0831026 106.475969,61.0097486 L113.119717,59.8893386 C113.555015,59.8159292 113.907895,59.4035141 113.907895,58.9461147 L113.907895,55.6596435 C113.907895,55.2121247 113.554392,54.7897239 113.119059,54.7163088 L106.469768,53.594964 C106.034106,53.5214934 105.632858,53.0944275 105.576484,52.6634795 L105.11691,49.150281 C105.059225,48.7093069 105.338815,48.2015989 105.740716,48.0165953 L111.879347,45.1908472 C112.281551,45.005704 112.517332,44.5147356 112.400335,44.0729217 L111.559693,40.8984343 C111.445223,40.4661643 110.995561,40.1507492 110.556087,40.1938623 L103.843545,40.8523724 C103.403739,40.895518 102.907238,40.5879025 102.743108,40.1861698 L101.405078,36.9111414 C101.23713,36.5000623 101.377664,35.9363434 101.718396,35.6525184 L106.922744,31.3173711 C107.263733,31.0333319 107.365773,30.497448 107.139751,30.1013285 L105.515755,27.2551609 C105.294616,26.8675983 104.780026,26.6805276 104.367083,26.8370632 L98.059783,29.2279897 C97.6465283,29.3846433 97.0883455,29.2171152 96.8266458,28.8717518 L94.6932029,26.0562605 C94.4254148,25.7028621 94.416409,25.1216135 94.6726561,24.7586173 L98.5865792,19.2142065 C98.8430197,18.8509364 98.804286,18.3069061 98.4846428,17.9834759 L96.1879667,15.6595899 C95.8752283,15.3431463 95.3302253,15.2972835 94.9712735,15.5567153 L89.4886375,19.5192809 C89.1294148,19.7789085 88.5471842,19.7639801 88.2059226,19.4996723 L85.4238702,17.3449663 C85.074669,17.0745092 84.9173458,16.5155953 85.0722179,16.0973022 L87.4377375,9.70828614 L87.4377375,9.70828614 Z M94.6587044,46.8116662 C92.0327121,37.2485266 85.8429983,28.680651 76.676876,23.3258898 C67.5626033,18.0014187 57.2007128,16.8441412 47.7461006,19.2698138 C45.9245227,19.7371573 46.9932992,19.4812009 46.9932992,19.4812009 C44.4552821,20.3568276 43.4454534,23.0006411 44.7236618,25.3602541 C44.7236618,25.3602541 43.986465,23.9993656 44.7807912,25.4657168 C48.5712051,32.4629404 56.1583116,46.4689781 56.1583116,46.4689781 C57.8743535,49.6368456 62.1590325,52.144084 65.7335253,52.0689443 C65.7335253,52.0689443 82.5434907,51.7155805 90.9520486,51.5388235 C92.5142746,51.5059838 90.9520486,51.5388235 90.9520486,51.5388235 C93.5404293,51.4844129 95.2211133,49.2786133 94.6587044,46.8116662 C94.6587044,46.8116662 95.0762774,48.332352 94.6587044,46.8116662 L94.6587044,46.8116662 L94.6587044,46.8116662 Z M46.8862755,95.1360603 C56.3399924,97.7838588 66.7860428,96.8281621 76.0431283,91.6360827 C85.2478496,86.4733731 91.5649833,78.0823131 94.3796064,68.6328002 C94.9218873,66.8122048 94.5882552,67.8710062 94.5882552,67.8710062 C95.1536603,65.2187454 93.4341044,62.9812335 90.7768774,62.874562 C90.7768774,62.874562 92.3094125,62.9360839 90.6581129,62.8697943 L67.0057454,61.9202959 C63.4383201,61.7770855 59.1075882,64.2019613 57.3302415,67.3408996 L44.7908235,89.4865279 C44.0140372,90.8583955 44.7908235,89.4865279 44.7908235,89.4865279 C43.5038017,91.7595126 44.5067864,94.3532786 46.8862755,95.1360603 C46.8862755,95.1360603 45.3829896,94.7150197 46.8862755,95.1360603 L46.8862755,95.1360603 L46.8862755,95.1360603 Z M30.1520605,85.3852464 C23.1589903,78.4249889 18.7539318,68.7934163 18.5692133,58.0855251 C18.3855398,47.4382048 22.4087576,37.7070611 29.0891449,30.5158907 C30.3762252,29.1304001 29.6368287,29.9521577 29.6368287,29.9521577 C31.6241572,28.130571 34.3989885,28.5186372 35.8189006,30.7937915 C35.8189006,30.7937915 34.9999773,29.4816139 35.8823634,30.8954792 C40.092987,37.6422479 48.5212089,51.1469609 48.5212089,51.1469609 C50.4274932,54.2014394 50.5174437,59.2088356 48.719546,62.3357682 C48.719546,62.3357682 40.2644728,77.0409676 36.035138,84.3966947 C35.2493699,85.7633153 36.035138,84.3966947 36.035138,84.3966947 C34.7332348,86.6609858 32.0117763,87.0789677 30.1520605,85.3852464 C30.1520605,85.3852464 31.2640658,86.492034 30.1520605,85.3852464 L30.1520605,85.3852464 L30.1520605,85.3852464 Z" id="Gear" sketch:type="MSShapeGroup"></path>
        </g>
    </g>
</svg>