<?xml version="1.0" encoding="UTF-8" standalone="no"?>
<svg width="151px" height="152px" viewBox="0 0 151 152" version="1.1" xmlns="http://www.w3.org/2000/svg" xmlns:xlink="http://www.w3.org/1999/xlink" xmlns:sketch="http://www.bohemiancoding.com/sketch/ns">
    <!-- Generator: Sketch 3.3.1 (12002) - http://www.bohemiancoding.com/sketch -->
    <title>sport</title>
    <desc>Created with Sketch.</desc>
    <defs></defs>
    <g id="Page-1" stroke="none" stroke-width="1" fill="none" fill-rule="evenodd" sketch:type="MSPage">
        <path d="M58.8259198,49.319644 C56.0963965,49.5735346 53.7337445,51.9335856 53.5480147,54.6020867 L52.2764809,72.8710388 C52.2026315,73.9320802 53.0260998,74.8267147 54.1184754,74.8693674 L57.6125571,75.0057968 C58.7037119,75.0484018 59.6560654,74.2309205 59.7418939,73.1523097 L60.9225312,58.3151704 C61.0073767,57.2489127 61.9526274,56.2826403 63.0358586,56.1567022 L68.8004526,55.4865018 C69.8827656,55.3606705 70.5181814,56.0867305 70.2190207,57.1105046 L58.0530442,98.744352 C57.9033376,99.2566709 57.4715256,99.9829464 57.0901414,100.364955 L39.3995529,118.084501 C38.6363308,118.848973 38.631865,120.09406 39.3924171,120.86837 L42.3825126,123.912558 C43.1417937,124.685575 44.3787546,124.694133 45.1448373,123.932175 L63.5169531,105.658969 C64.2832617,104.896786 65.1659234,103.456133 65.4913832,102.431896 L71.2013328,84.4624205 C71.5254718,83.4423401 72.5098412,83.130679 73.3832858,83.7543827 L86.9868554,93.4683311 C87.8677758,94.097373 87.8355818,95.0796106 86.9244729,95.6561927 L69.0173211,106.988474 C67.6439561,107.857588 67.3589739,109.569431 68.3848104,110.816864 L69.9778775,112.754059 C71.0019164,113.999307 72.9487757,114.298158 74.3169445,113.427521 L97.216752,98.8551858 C99.967202,97.1049318 100.164951,94.0066238 97.6665165,91.9416003 L83.3012497,80.0683175 C82.4630827,79.3755496 82.0190996,77.9791699 82.3085044,76.9532497 L84.7647686,68.2459598 C85.0546575,67.2183233 85.6764375,67.170275 86.1455587,68.1224155 L90.192341,76.3358692 C90.6650414,77.2952741 91.8224033,77.6512426 92.7793336,77.1298833 L110.39248,67.5338061 C112.782824,66.2314873 113.215427,63.5972437 111.346081,61.6367975 C110.274232,60.5127132 108.215695,60.2236001 106.805676,61.0321964 L96.068833,67.1894012 C95.1261941,67.7299717 94.0245787,67.3634907 93.611172,66.3776772 L87.7071031,52.2987771 C87.2924134,51.3099037 86.2881709,49.9249043 85.4785783,49.2179673 L84.4956562,48.3596789 C83.6795657,47.6470679 82.1301537,47.1519663 81.038379,47.2535193 L58.8259198,49.319644 Z M94.3777728,35.2852607 C94.3777728,30.7552893 90.6035314,27.0830219 85.9477687,27.0830219 C81.292006,27.0830219 77.5177647,30.7552893 77.5177647,35.2852607 C77.5177647,39.8152321 81.292006,43.4874996 85.9477687,43.4874996 C90.6035314,43.4874996 94.3777728,39.8152321 94.3777728,35.2852607 L94.3777728,35.2852607 Z" id="Workout-Copy" fill="#262628" sketch:type="MSShapeGroup"></path>
    </g>
</svg>