<?xml version="1.0" encoding="UTF-8" standalone="no"?>
<svg width="81px" height="80px" viewBox="0 0 81 80" version="1.1" xmlns="http://www.w3.org/2000/svg" xmlns:xlink="http://www.w3.org/1999/xlink" xmlns:sketch="http://www.bohemiancoding.com/sketch/ns">
    <!-- Generator: Sketch 3.3.1 (12002) - http://www.bohemiancoding.com/sketch -->
    <title>Untitled 7</title>
    <desc>Created with Sketch.</desc>
    <defs></defs>
    <g id="Page-1" stroke="none" stroke-width="1" fill="none" fill-rule="evenodd" sketch:type="MSPage">
        <g id="Oval-1-Copy-+-Shape" sketch:type="MSLayerGroup" transform="translate(15.000000, 19.000000)" fill="#FFFFFF">
            <path d="M2.99062355,2.74812134 C4.40325487,1.61633458 6.1993147,0.943652997 8.01555498,0.928517661 C19.2880166,0.928517661 30.5604782,0.930199365 41.8329399,0.926835957 C44.002338,0.854522687 46.1919165,1.69369296 47.7525378,3.20386312 C49.3888358,4.82838914 50.2162341,7.17436616 50.1170136,9.46484696 C50.1136502,16.8677078 50.1170136,24.2705686 50.1153319,31.6734294 C50.1254221,34.0749027 49.069312,36.5066466 47.1773951,38.0151351 C45.7143126,39.1536486 43.8644383,39.833057 42.0011103,39.7792425 C37.1393041,39.7725157 32.2758163,39.7775608 27.4140101,39.7758791 C27.4123284,40.7983551 27.4123284,41.8225128 27.4140101,42.8449888 C29.7448518,42.8533974 32.0773752,42.8298535 34.4082169,42.8550791 C35.4828257,42.9105753 36.1975499,44.2223044 35.6476327,45.1539684 C35.3634248,45.707249 34.742876,46.0217276 34.1307358,45.9981838 C28.5525237,45.9931386 22.9743117,46.0099557 17.3977814,45.9897752 C16.4577088,45.9965021 15.6639446,45.0160686 15.8960197,44.1012217 C16.030556,43.3848158 16.7166913,42.8248084 17.4465508,42.8466705 C19.7168511,42.8399437 21.9888332,42.8483522 24.2591335,42.8449888 C24.2574518,41.8225128 24.2574518,40.8000368 24.2591335,39.7775608 C18.7952774,39.7758791 13.3314212,39.7758791 7.86756503,39.7775608 C5.96555785,39.7321548 4.09886645,38.9552076 2.67782661,37.697293 C1.07179933,36.2039399 0.145180448,34.0210882 0.126681704,31.8331913 C0.126681704,24.2066639 0.128363408,16.5801364 0.125,8.95360895 C0.126681704,6.60763193 1.16933816,4.24651957 2.99062355,2.74812134 L2.99062355,2.74812134 Z M6.91908399,4.18765993 C4.93467332,4.65012852 3.30173878,6.53195525 3.28155833,8.59876942 C3.27819492,16.3985124 3.28324003,24.199937 3.27819492,32.0013617 C3.24960596,34.4162886 5.41900406,36.6563183 7.84906628,36.6243659 C19.3502397,36.6210025 30.851413,36.6193208 42.3542681,36.6243659 C44.7893754,36.6731353 46.9873625,34.4331056 46.9587736,32.0080885 C46.9671821,24.3227014 46.9570918,16.638996 46.9638187,8.95360895 C47.1218988,6.42937131 44.8751423,4.0447151 42.3441779,4.08171258 L7.84906628,4.08171258 C7.53626935,4.08507599 7.22515411,4.12207348 6.91908399,4.18765993 L6.91908399,4.18765993 Z M24.875,9 C25.4272847,9 25.875,8.55228475 25.875,8 C25.875,7.44771525 25.4272847,7 24.875,7 C24.3227153,7 23.875,7.44771525 23.875,8 C23.875,8.55228475 24.3227153,9 24.875,9 Z" id="Shape" sketch:type="MSShapeGroup"></path>
        </g>
    </g>
</svg>