<?xml version="1.0" encoding="UTF-8" standalone="no"?>
<svg width="81px" height="80px" viewBox="0 0 81 80" version="1.1" xmlns="http://www.w3.org/2000/svg" xmlns:xlink="http://www.w3.org/1999/xlink" xmlns:sketch="http://www.bohemiancoding.com/sketch/ns">
    <!-- Generator: Sketch 3.3.1 (12002) - http://www.bohemiancoding.com/sketch -->
    <title>Untitled 7</title>
    <desc>Created with Sketch.</desc>
    <defs></defs>
    <g id="Page-1" stroke="none" stroke-width="1" fill="none" fill-rule="evenodd" sketch:type="MSPage">
        <path d="M23.890555,20.0059996 C35.1630166,20.0059996 46.4354782,20.0076813 57.7079399,20.0043179 C59.877338,19.9320046 62.0669165,20.7711749 63.6275378,22.2813451 C65.2638358,23.9058711 66.0912341,26.2518481 65.9920136,28.5423289 C65.9886502,35.9451897 65.9920136,43.3480506 65.9903319,50.7509114 C66.0004221,53.1523846 64.944312,55.5841286 63.0523951,57.092617 C61.5893126,58.2311306 59.7394383,58.910539 57.8761103,58.8567245 C53.0143041,58.8499976 48.1508163,58.8550428 43.2890101,58.8533611 C41,58.8550415 41.8536816,58.8550415 40.1341335,58.8550428 C34.6702774,58.8533611 29.2064212,58.8533611 23.742565,58.8550428 C21.8405578,58.8096368 19.9738665,58.0326895 18.5528266,56.774775 C16.9467993,55.2814218 16.0201804,53.0985701 16.0016817,50.9106733 C16.0016817,43.2841458 16.0033634,35.6576184 16,28.0310909 C16.0016817,25.6851139 17.0443382,23.3240015 18.8656235,21.8256033 C20.2782549,20.6938165 22.0743147,20.0211349 23.890555,20.0059996 Z M22.794084,23.2642924 C20.8096733,23.726761 19.1767388,25.6085877 19.1565583,27.6754019 C19.1531949,35.4751449 19.15824,43.2765695 19.1531949,51.0779942 C19.124606,53.4929211 21.2940041,55.7329507 23.7240663,55.7009984 C35.2252397,55.697635 46.726413,55.6959533 58.2292681,55.7009984 C60.6643754,55.7497678 62.8623625,53.5097381 62.8337736,51.084721 C62.8421821,43.3993339 62.8320918,35.7156285 62.8388187,28.0302414 C62.9968988,25.5060038 60.7501423,23.1213476 58.2191779,23.1583451 L23.7240663,23.1583451 C23.4112693,23.1617085 23.1001541,23.198706 22.794084,23.2642924 L22.794084,23.2642924 Z M24.75,41.4298502 C25.8545695,41.4298502 26.75,40.5344197 26.75,39.4298502 C26.75,38.3252807 25.8545695,37.4298502 24.75,37.4298502 C23.6454305,37.4298502 22.75,38.3252807 22.75,39.4298502 C22.75,40.5344197 23.6454305,41.4298502 24.75,41.4298502 Z" id="Shape-Copy" fill="#FFFFFF" sketch:type="MSShapeGroup" transform="translate(41.000000, 39.429850) rotate(-90.000000) translate(-41.000000, -39.429850) "></path>
    </g>
</svg>